<?xml version="1.0" encoding="UTF-8"?>
<svg xmlns="http://www.w3.org/2000/svg" viewBox="0 0 64 64" aria-hidden="true" role="img">
  <!-- Red document sheet -->
  <path d="M14 6h24l12 12v34a6 6 0 0 1-6 6H14a6 6 0 0 1-6-6V12a6 6 0 0 1 6-6z" fill="#ef4444"/>
  <path d="M38 6v12h12" fill="#ef4444"/>
  <!-- Unlocked black padlock -->
  <g transform="translate(30,30)">
    <rect x="-6" y="6" width="24" height="18" rx="3" fill="#0f172a"/>
    <path d="M2 6V2a8 8 0 1 1 16 0v6h-4V2a4 4 0 1 0-8 0v4z" fill="#0f172a"/>
    <circle cx="6" cy="15" r="2" fill="#ffffff"/>
  </g>
</svg>
